<svg width="40" height="40" viewBox="0 0 40 40" fill="none" xmlns="http://www.w3.org/2000/svg">
<path d="M31.6667 3.33334H8.33337C5.57671 3.33334 3.33337 5.57668 3.33337 8.33334V13.0517C3.33337 14.8067 3.97004 16.4017 5.00004 17.6283V33.3333C5.00004 33.7754 5.17564 34.1993 5.4882 34.5119C5.80076 34.8244 6.22468 35 6.66671 35H20C20.4421 35 20.866 34.8244 21.1786 34.5119C21.4911 34.1993 21.6667 33.7754 21.6667 33.3333V25H28.3334V33.3333C28.3334 33.7754 28.509 34.1993 28.8215 34.5119C29.1341 34.8244 29.558 35 30 35H33.3334C33.7754 35 34.1993 34.8244 34.5119 34.5119C34.8244 34.1993 35 33.7754 35 33.3333V17.6267C36.03 16.4017 36.6667 14.8067 36.6667 13.05V8.33334C36.6667 5.57668 34.4234 3.33334 31.6667 3.33334ZM33.3334 8.33334V13.0517C33.3334 14.9517 31.9184 16.5717 30.1817 16.6633L30 16.6667C28.1617 16.6667 26.6667 15.1717 26.6667 13.3333V6.66668H31.6667C32.5867 6.66668 33.3334 7.41501 33.3334 8.33334ZM16.6667 13.3333V6.66668H23.3334V13.3333C23.3334 15.1717 21.8384 16.6667 20 16.6667C18.1617 16.6667 16.6667 15.1717 16.6667 13.3333ZM6.66671 8.33334C6.66671 7.41501 7.41337 6.66668 8.33337 6.66668H13.3334V13.3333C13.3334 15.1717 11.8384 16.6667 10 16.6667L9.81837 16.6617C8.08171 16.5717 6.66671 14.9517 6.66671 13.0517V8.33334ZM16.6667 26.6667H10V21.6667H16.6667V26.6667Z" fill="url(#paint0_linear_2_1327)"/>
<defs>
<linearGradient id="paint0_linear_2_1327" x1="20" y1="3.33334" x2="20" y2="35" gradientUnits="userSpaceOnUse">
<stop stop-color="#EA9769"/>
<stop offset="1" stop-color="#EA6969"/>
</linearGradient>
</defs>
</svg>
