<svg width="24" height="24" viewBox="0 0 24 24" fill="none" xmlns="http://www.w3.org/2000/svg">
<path d="M14.4738 2.00018C14.5168 2.00018 14.5591 2.00381 14.6001 2.01078L14.7365 2.01188C14.9407 2.01188 15.136 2.09514 15.2775 2.24243L20.3435 7.51843C20.4776 7.65811 20.5525 7.84424 20.5525 8.03788V17.2279C20.5525 19.7229 18.5282 21.8649 16.0725 21.8649H8.08449C5.50133 21.8649 3.50049 19.8254 3.50049 17.2279V6.49088C3.50049 4.02971 5.59719 2.01188 8.08449 2.01188L14.3477 2.01074C14.3887 2.0038 14.4308 2.00018 14.4738 2.00018ZM13.7235 3.51018L8.08449 3.51188C6.41302 3.51188 5.00049 4.87128 5.00049 6.49088V17.2279C5.00049 19.0033 6.33625 20.3649 8.08449 20.3649H16.0725C17.6802 20.3649 19.0525 18.9128 19.0525 17.2279L19.0515 8.98318L18.1757 8.98625C17.8422 8.98585 17.4629 8.98514 17.0412 8.98418C15.2709 8.98044 13.8265 7.59366 13.729 5.84759L13.7238 5.65918L13.7235 3.51018ZM11.6408 8.69078C12.0205 8.69078 12.3343 8.97294 12.3839 9.33901L12.3908 9.44078L12.3905 14.1952L13.9479 12.634C14.2402 12.3405 14.7151 12.3395 15.0086 12.6317C15.2754 12.8974 15.3005 13.3141 15.0833 13.6081L15.0108 13.6924L12.1718 16.5434L12.1281 16.5839C12.1177 16.5928 12.1071 16.6014 12.0962 16.6097L12.1718 16.5434C12.135 16.5803 12.0954 16.6127 12.0535 16.6403C12.039 16.6497 12.0235 16.6592 12.0076 16.6681C11.9942 16.6759 11.981 16.6828 11.9676 16.6893C11.9512 16.697 11.9344 16.7044 11.9172 16.7112C11.9002 16.7182 11.8825 16.7245 11.8646 16.73C11.851 16.7341 11.8373 16.7379 11.8234 16.7414C11.8034 16.7466 11.7832 16.7508 11.763 16.7541C11.7511 16.7558 11.739 16.7575 11.7268 16.7589C11.7033 16.7619 11.6796 16.7635 11.6558 16.764C11.6509 16.7637 11.6459 16.7638 11.6408 16.7638L11.6258 16.764C11.6014 16.7636 11.577 16.7619 11.5527 16.7591L11.6408 16.7638C11.5999 16.7638 11.5598 16.7605 11.5208 16.7542C11.4988 16.7511 11.4771 16.7466 11.4556 16.7412C11.4445 16.7379 11.4331 16.7348 11.4218 16.7313C11.4 16.7252 11.3787 16.7176 11.3576 16.7091C11.3464 16.7039 11.3353 16.6991 11.3243 16.6939C11.3067 16.6864 11.2894 16.6775 11.2724 16.6679C11.2574 16.6587 11.2422 16.6495 11.2275 16.6397C11.2156 16.6326 11.2043 16.6246 11.1931 16.6163L11.1853 16.6097C11.1745 16.6014 11.1639 16.5928 11.1535 16.5839L11.1088 16.5433L8.27085 13.6923C7.97862 13.3987 7.97971 12.9239 8.27327 12.6316C8.54015 12.366 8.95686 12.3427 9.24998 12.5613L9.33393 12.6341L10.8905 14.1982L10.8908 9.44078C10.8908 9.02657 11.2266 8.69078 11.6408 8.69078ZM15.2235 4.35118L15.2238 5.65918C15.2238 6.66575 16.0381 7.48206 17.0445 7.48419L18.2315 7.48418L15.2235 4.35118Z" fill="#3B5162"/>
</svg>
